<?xml version="1.0"?>
<svg xmlns="http://www.w3.org/2000/svg" xmlns:xlink="http://www.w3.org/1999/xlink" xmlns:svgjs="http://svgjs.com/svgjs" version="1.1" width="512" height="512" x="0" y="0" viewBox="0 0 64 64" style="enable-background:new 0 0 512 512" xml:space="preserve" class=""><g><g xmlns="http://www.w3.org/2000/svg" id="Fill_Outline" data-name="Fill Outline"><g id="Color"><g><g><path d="m41 47a6.962 6.962 0 0 0 -3 .683v-26.683l-6-4v-14a6 6 0 0 0 -6 6v12l8 4v29a7 7 0 1 0 7-7zm0 10a3 3 0 1 1 3-3 3 3 0 0 1 -3 3z" fill="#a0a5a6" data-original="#93999a" style="" class=""/><path d="m41 47a6.962 6.962 0 0 0 -3 .683v-4.238a3.982 3.982 0 0 1 -2-3.445v-12a4 4 0 0 1 1.6-3.2l.4-.3v-3.5l-6-4v-14a5.971 5.971 0 0 0 -2 .349v8.44a6 6 0 0 1 -2.672 4.992l-1.328.886v3.333l8 4v29a7 7 0 1 0 7-7zm0 10a3 3 0 1 1 3-3 3 3 0 0 1 -3 3z" fill="#656b76" data-original="#656b76" style="" class=""/><path d="m30 41h4v4h-4z" fill="#a0a5a6" data-original="#93999a" style="" class=""/><path d="m32 3v14l-6 4v26.683a7 7 0 1 0 4 6.317v-29l8-4v-12a6 6 0 0 0 -6-6zm-9 54a3 3 0 1 1 3-3 3 3 0 0 1 -3 3z" fill="#cccccc" data-original="#d0d8da" style="" class=""/><path d="m28 45v-18.746a6 6 0 0 1 2.727-5.029l1.546-1.006a6 6 0 0 0 2.727-5.029v-11.381a5.97 5.97 0 0 0 -3-.809v14l-6 4v26.683a7 7 0 1 0 4 6.317v-4.537a5.976 5.976 0 0 1 -2-4.463zm-5 12a3 3 0 1 1 3-3 3 3 0 0 1 -3 3z" fill="#a0a5a6" data-original="#93999a" style="" class=""/></g><g><path d="m54 27h4a2 2 0 0 1 2 2v28a4 4 0 0 1 -4 4 4 4 0 0 1 -4-4v-28a2 2 0 0 1 2-2z" fill="#65abeb" data-original="#aae1f9" style="" class=""/><path d="m52.4 10.99.506 10.11a1.991 1.991 0 0 0 1.094 1.675v4.225h4v-4.225a1.991 1.991 0 0 0 1.1-1.675l.9-18.1a7.61 7.61 0 0 0 -7.6 7.99z" fill="#cccccc" data-original="#d0d8da" style="" class=""/><path d="m55 16v-11.125a7.594 7.594 0 0 0 -2.6 6.115l.506 10.11a1.991 1.991 0 0 0 1.094 1.675v4.225h4v-4.225a2 2 0 0 0 .375-.255 7.984 7.984 0 0 1 -3.375-6.52z" fill="#a0a5a6" data-original="#93999a" style="" class=""/><path d="m59 58a4 4 0 0 1 -4-4v-27h-1a2 2 0 0 0 -2 2v28a4 4 0 0 0 7.892.892 3.974 3.974 0 0 1 -.892.108z" fill="#0080f6" data-original="#57b7eb" style="" class=""/></g><rect fill="#65abeb" height="38" rx="3" width="6" x="6" y="23" data-original="#aae1f9" style="" class=""/><path d="m9 55v-32a3 3 0 0 0 -3 3v32a3 3 0 0 0 6 0 3 3 0 0 1 -3-3z" fill="#0080f6" data-original="#57b7eb" style="" class=""/></g></g><g id="Outline_copy" data-name="Outline copy"><g fill="#434951"><path d="m41 46a7.9 7.9 0 0 0 -2 .256v-21.256a1 1 0 0 0 -2 0v22.683a1 1 0 0 0 1.43.9 5.943 5.943 0 0 1 2.57-.583 6 6 0 1 1 -6 6v-27a1 1 0 0 0 -2 0v13h-2v-14.382l7.447-3.718a1 1 0 0 0 .553-.9v-12a7 7 0 0 0 -14 0v8a1 1 0 0 0 2 0v-8a5.009 5.009 0 0 1 4-4.9v12.365l-5.555 3.7a1 1 0 0 0 -.445.835v23a1 1 0 0 0 2 0v-22.465l5.555-3.7a1 1 0 0 0 .445-.835v-12.9a5.008 5.008 0 0 1 4 4.9v11.382l-7.447 3.723a1 1 0 0 0 -.553.895v29a6 6 0 1 1 -6-6 5.943 5.943 0 0 1 2.57.585 1 1 0 1 0 .86-1.8 7.918 7.918 0 0 0 -3.43-.785 8 8 0 1 0 8 8v-8h2v8a8 8 0 1 0 8-8zm-10-2v-2h2v2z" fill="#434951" data-original="#434951" style="" class=""/><path d="m45 54a4 4 0 1 0 -4 4 4 4 0 0 0 4-4zm-6 0a2 2 0 1 1 2 2 2 2 0 0 1 -2-2z" fill="#434951" data-original="#434951" style="" class=""/><circle cx="32" cy="21" r="1" fill="#434951" data-original="#434951" style="" class=""/><path d="m23 50a4 4 0 1 0 4 4 4 4 0 0 0 -4-4zm0 6a2 2 0 1 1 2-2 2 2 0 0 1 -2 2z" fill="#434951" data-original="#434951" style="" class=""/><path d="m59 26.184v-2.875a3 3 0 0 0 1.094-2.16l.906-18.099a1 1 0 0 0 -1-1.05 8.611 8.611 0 0 0 -8.6 9.04l.5 10.11a3 3 0 0 0 1.1 2.159v2.875a3 3 0 0 0 -2 2.816v28a5 5 0 0 0 10 0v-12a1 1 0 0 0 -2 0v12a3 3 0 0 1 -6 0v-15h7a1 1 0 0 0 1-1v-12a3 3 0 0 0 -2-2.816zm-6 7.816h6v2h-6zm2.211-27.946a6.536 6.536 0 0 1 3.734-1.971l-.845 16.966a.987.987 0 0 1 -.551.835 1 1 0 0 0 -.546.891v3.225h-2.003v-3.225a1 1 0 0 0 -.546-.891.987.987 0 0 1 -.551-.834l-.5-10.11a6.553 6.553 0 0 1 1.808-4.886zm-1.211 21.946h4a1 1 0 0 1 1 1v3h-6v-3a1 1 0 0 1 1-1zm-1 12v-2h6v2z" fill="#434951" data-original="#434951" style="" class=""/><path d="m10 22.142v-8.311a20.057 20.057 0 0 1 2.857-10.316 1 1 0 0 0 -1.714-1.03 22.051 22.051 0 0 0 -3.143 11.346v8.311a4 4 0 0 0 -3 3.858v32a4 4 0 0 0 8 0v-17a1 1 0 0 0 -2 0v17a2 2 0 0 1 -4 0v-20h5a1 1 0 0 0 1-1v-11a4 4 0 0 0 -3-3.858zm-3 7.858h4v2h-4zm2-6a2 2 0 0 1 2 2v2h-4v-2a2 2 0 0 1 2-2zm-2 12v-2h4v2z" fill="#434951" data-original="#434951" style="" class=""/></g></g></g></g></svg>
